<mxfile host="app.diagrams.net" modified="2023-06-19T13:09:36.172Z" agent="Mozilla/5.0 (Windows NT 10.0; Win64; x64) AppleWebKit/537.36 (KHTML, like Gecko) Chrome/114.0.0.0 Safari/537.36" version="21.5.0" etag="N_c6VKHposw5C9wuXkxG" type="github">
  <diagram name="PÃ¡gina-1" id="C2Zj3otwb1UcWnnEA3IA">
    <mxGraphModel>
      <root>
        <mxCell id="0" />
        <mxCell id="1" parent="0" />
      </root>
    </mxGraphModel>
  </diagram>
</mxfile>
